<?xml version="1.0" encoding="UTF-8" standalone="no"?>
<!-- Created with Inkscape (http://www.inkscape.org/) -->

<svg
   xmlns:dc="http://purl.org/dc/elements/1.1/"
   xmlns:cc="http://creativecommons.org/ns#"
   xmlns:rdf="http://www.w3.org/1999/02/22-rdf-syntax-ns#"
   xmlns:svg="http://www.w3.org/2000/svg"
   xmlns="http://www.w3.org/2000/svg"
   xmlns:sodipodi="http://sodipodi.sourceforge.net/DTD/sodipodi-0.dtd"
   xmlns:inkscape="http://www.inkscape.org/namespaces/inkscape"
   width="800"
   height="600"
   id="svg2"
   version="1.1"
   inkscape:version="0.48.5 r10040"
   sodipodi:docname="Splash.png">
  <defs
     id="defs4" />
  <sodipodi:namedview
     id="base"
     pagecolor="#ffffff"
     bordercolor="#666666"
     borderopacity="1.0"
     inkscape:pageopacity="0"
     inkscape:pageshadow="2"
     inkscape:zoom="0.98994949"
     inkscape:cx="448.55571"
     inkscape:cy="251.55366"
     inkscape:document-units="px"
     inkscape:current-layer="layer1"
     showgrid="false"
     inkscape:window-width="1366"
     inkscape:window-height="721"
     inkscape:window-x="-2"
     inkscape:window-y="-3"
     inkscape:window-maximized="1" />
  <metadata
     id="metadata7">
    <rdf:RDF>
      <cc:Work
         rdf:about="">
        <dc:format>image/svg+xml</dc:format>
        <dc:type
           rdf:resource="http://purl.org/dc/dcmitype/StillImage" />
        <dc:title></dc:title>
      </cc:Work>
    </rdf:RDF>
  </metadata>
  <g
     inkscape:label="Capa 1"
     inkscape:groupmode="layer"
     id="layer1"
     transform="translate(0,-452.36217)"
     style="opacity:1">
    <path
       style="fill:#3f657d;fill-opacity:1"
       d="M 400 100 C 299.73682 100 216.72154 173.77132 202.25 270 L 0 270 L 0 330 L 202.25 330 C 216.72154 426.22868 299.73682 500 400 500 C 500.26318 500 583.27846 426.22868 597.75 330 L 800 330 L 800 270 L 597.75 270 C 583.27846 173.77132 500.26318 100 400 100 z M 400 150 C 472.56403 150 533.06549 201.53943 546.96875 270 L 253.03125 270 C 266.93451 201.53943 327.43597 150 400 150 z M 253.03125 330 L 546.96875 330 C 533.06549 398.46057 472.56403 450 400 450 C 327.43597 450 266.93451 398.46057 253.03125 330 z "
       transform="translate(0,452.36217)"
       id="path2985" />
  </g>
</svg>
